HIERARCHY
ROOT Hips
{
	OFFSET	0.00	0.00	0.00
	CHANNELS 6 Xposition Yposition Zposition Zrotation Xrotation Yrotation
	JOINT LeftUpLeg
	{
		OFFSET	 0.126116	-0.065224	 0.014019
		CHANNELS 3 Zrotation Xrotation Yrotation
		JOINT LeftLeg
		{
			OFFSET	 0.000000	 0.569914	 0.000000
			CHANNELS 3 Zrotation Xrotation Yrotation
			JOINT LeftFoot
			{
				OFFSET	 0.000000	 0.544423	 0.000000
				CHANNELS 3 Zrotation Xrotation Yrotation
				JOINT LeftToeBase
				{
					OFFSET	 0.000000	 0.207117	 0.000000
					CHANNELS 3 Zrotation Xrotation Yrotation
					End Site
					{
						OFFSET	 0.000000	 0.207117	 0.000000
					}
				}
			}
		}
	}
	JOINT RightUpLeg
	{
		OFFSET	-0.124023	-0.065224	 0.008373
		CHANNELS 3 Zrotation Xrotation Yrotation
		JOINT RightLeg
		{
			OFFSET	 0.000000	 0.570047	 0.000000
			CHANNELS 3 Zrotation Xrotation Yrotation
			JOINT RightFoot
			{
				OFFSET	 0.000000	 0.544354	 0.000000
				CHANNELS 3 Zrotation Xrotation Yrotation
				JOINT RightToeBase
				{
					OFFSET	 0.000000	 0.207540	 0.000000
					CHANNELS 3 Zrotation Xrotation Yrotation
					End Site
					{
						OFFSET	 0.000000	 0.207540	 0.000000
					}
				}
			}
		}
	}
	JOINT Spine
	{
		OFFSET	 0.000184	 0.117403	 0.007763
		CHANNELS 3 Zrotation Xrotation Yrotation
		JOINT Spine1
		{
			OFFSET	 0.000000	 0.137269	 0.000000
			CHANNELS 3 Zrotation Xrotation Yrotation
			JOINT Spine2
			{
				OFFSET	 0.000000	 0.156879	 0.000000
				CHANNELS 3 Zrotation Xrotation Yrotation
				JOINT LeftShoulder
				{
					OFFSET	 0.080501	 0.160143	 0.002496
					CHANNELS 3 Zrotation Xrotation Yrotation
					JOINT LeftArm
					{
						OFFSET	 0.000000	 0.164363	 0.000000
						CHANNELS 3 Zrotation Xrotation Yrotation
						JOINT LeftForeArm
						{
							OFFSET	 0.000000	 0.364576	 0.000000
							CHANNELS 3 Zrotation Xrotation Yrotation
							JOINT LeftHand
							{
								OFFSET	 0.000000	 0.360812	 0.000000
								CHANNELS 3 Zrotation Xrotation Yrotation
								JOINT LeftHandIndex1
								{
									OFFSET	 0.000000	 0.086006	 0.000000
									CHANNELS 3 Zrotation Xrotation Yrotation
									JOINT LeftHandIndex2
									{
										OFFSET	 0.000000	 0.047237	 0.000000
										CHANNELS 3 Zrotation Xrotation Yrotation
										JOINT LeftHandIndex3
										{
											OFFSET	-0.004284	 0.038165	 0.000551
											CHANNELS 3 Zrotation Xrotation Yrotation
											End Site
											{
												OFFSET	-0.004284	 0.038165	 0.000551
											}
										}
									}
								}
							}
						}
					}
				}
				JOINT Neck
				{
					OFFSET	 0.000000	 0.176489	 0.000000
					CHANNELS 3 Zrotation Xrotation Yrotation
					JOINT Head
					{
						OFFSET	 0.000000	 0.077941	 0.001747
						CHANNELS 3 Zrotation Xrotation Yrotation
						End Site
						{
							OFFSET	 0.000000	 0.077941	 0.001747
						}
					}
				}
				JOINT RightShoulder
				{
					OFFSET	-0.080363	 0.159706	-0.000306
					CHANNELS 3 Zrotation Xrotation Yrotation
					JOINT RightArm
					{
						OFFSET	 0.000000	 0.164196	 0.000000
						CHANNELS 3 Zrotation Xrotation Yrotation
						JOINT RightForeArm
						{
							OFFSET	 0.000000	 0.365611	 0.000000
							CHANNELS 3 Zrotation Xrotation Yrotation
							JOINT RightHand
							{
								OFFSET	 0.000000	 0.360648	 0.000000
								CHANNELS 3 Zrotation Xrotation Yrotation
								JOINT RightHandIndex1
								{
									OFFSET	 0.000000	 0.069977	 0.000000
									CHANNELS 3 Zrotation Xrotation Yrotation
									JOINT RightHandIndex2
									{
										OFFSET	 0.000000	 0.052305	 0.000000
										CHANNELS 3 Zrotation Xrotation Yrotation
										JOINT RightHandIndex3
										{
											OFFSET	 0.009002	 0.042196	 0.000782
											CHANNELS 3 Zrotation Xrotation Yrotation
											End Site
											{
												OFFSET	 0.009002	 0.042196	 0.000782
											}
										}
									}
								}
							}
						}
					}
				}
			}
		}
	}
}
MOTION
Frames:    13
Frame Time: 0.03333334
 0.011622	 1.267742	 0.005166	-0.320448	 3.104121	 179.985500	-178.146900	 4.520356	-13.099570	 3.227766	-15.918180	 3.760160	-3.531507	 69.249570	 4.469602	 1.331492	 28.938720	-2.729976	 178.213200	 5.624631	 18.879650	-5.582011	-17.791580	-5.502265	 5.118401	 70.809000	-4.922464	-1.310369	 28.652820	 2.719631	-0.810746	 3.752617	 3.015854	-0.711931	 4.308509	 1.245787	-0.774977	-1.889256	-4.959063	-113.450900	 4.383299	 92.698800	 14.930600	 56.568600	 32.289110	 9.241737	-0.476128	-0.045364	 0.026074	-10.542670	-3.086928	-6.580301	 5.266122	 0.000000	 0.000000	 0.000000	 0.000000	 0.000000	 0.000000	 0.000000	 3.168047	-1.481992	-0.437847	 2.820049	 0.454537	-0.234319	 114.192300	-4.259756	-88.494710	-15.401400	 53.142640	-45.341440	-20.012230	-0.771422	-0.077554	 5.810611	-12.235960	 32.430210	-0.359770	 10.582440	 0.744565	 11.977770	 9.317328	-2.096067	-8.359136	 3.150319	 0.104224
-0.000811	 1.269464	-0.008454	-0.042599	 3.116529	 178.815600	-178.424000	 3.308979	-14.365140	 3.075824	-15.205060	 2.876851	-5.188276	 69.540820	 6.720576	 1.331492	 28.938720	-2.729976	 177.997100	 4.368843	 17.900680	-5.124575	-16.419110	-6.460971	 2.521486	 70.462930	-1.756812	-1.305358	 28.580640	 2.605086	-1.162095	 3.484647	 2.150546	-1.559002	 2.798051	 0.295976	-1.573320	-0.863228	-5.249176	-113.447000	 5.127295	 93.000310	 12.695130	 55.694760	 33.010340	 5.017154	-0.259273	-0.072485	 4.068941	-9.250754	-6.932883	-6.580301	 5.266122	 0.000000	 0.000000	 0.000000	 0.000000	 0.000000	 0.000000	 0.000000	 3.828838	-0.641602	-0.249787	 3.206837	 1.168794	 0.295997	 114.205900	-4.429971	-88.481340	-59.184890	 3.913465	 45.695900	-93.159420	-2.249624	-2.318690	-10.016140	-12.933750	-35.985070	-0.359781	 10.582450	 0.744568	 11.977790	 9.317317	-2.096066	-8.359142	 3.150340	 0.104224
-0.000786	 1.269466	-0.008322	-0.008121	 3.027151	 178.813100	-178.382100	 3.449196	-14.364210	 3.092890	-15.285390	 2.881315	-5.194079	 69.570300	 6.718150	 1.331492	 28.938720	-2.729976	 178.033000	 4.470154	 17.896870	-5.124986	-16.420350	-6.461140	 2.502517	 70.451720	-1.737134	-1.305358	 28.580640	 2.605080	-1.123134	 3.445122	 2.108617	-1.545277	 2.613258	 0.280711	-1.577537	-0.639591	-5.191090	-113.447000	 5.127281	 93.000310	 12.772850	 55.714620	 32.945350	 4.982946	-0.257539	-0.072629	 3.918813	-9.156548	-7.055726	-6.580301	 5.266122	 0.000000	 0.000000	 0.000000	 0.000000	 0.000000	 0.000000	 0.000000	 3.828857	-0.641645	-0.249793	 3.206320	 1.197015	 0.306208	 114.205900	-4.429948	-88.481350	-58.834210	 4.482790	 45.501350	-93.667170	-2.248433	-2.338585	-10.091770	-13.002160	-35.981860	-0.359781	 10.582450	 0.744568	 11.977790	 9.317317	-2.096066	-8.359142	 3.150340	 0.104224
-0.000763	 1.269479	-0.008194	 0.025799	 2.939713	 178.809100	-178.341400	 3.581826	-14.363760	 3.107807	-15.355520	 2.885197	-5.194998	 69.595110	 6.711251	 1.331492	 28.938720	-2.729976	 178.067400	 4.565580	 17.898400	-5.122957	-16.414200	-6.460744	 2.500685	 70.436740	-1.737397	-1.305358	 28.580640	 2.605063	-1.084807	 3.405552	 2.051511	-1.534678	 2.434814	 0.258393	-1.581417	-0.425902	-5.108673	-113.447100	 5.127247	 93.000320	 12.843950	 55.733800	 32.886510	 4.950725	-0.255846	-0.072770	 3.755682	-9.075009	-7.235453	-6.580301	 5.266122	 0.000000	 0.000000	 0.000000	 0.000000	 0.000000	 0.000000	 0.000000	 3.828917	-0.641781	-0.249811	 3.205939	 1.225260	 0.322510	 114.205900	-4.429883	-88.481400	-58.478300	 5.045560	 45.297640	-94.156330	-2.247140	-2.357785	-10.203910	-13.067130	-35.926050	-0.359781	 10.582450	 0.744568	 11.977790	 9.317316	-2.096066	-8.359142	 3.150340	 0.104224
-0.000750	 1.269517	-0.008065	 0.063755	 2.850132	 178.802300	-178.297300	 3.710217	-14.363450	 3.120088	-15.413260	 2.888216	-5.186936	 69.613850	 6.695634	 1.331492	 28.938720	-2.729976	 178.105500	 4.653507	 17.899860	-5.114365	-16.388200	-6.458716	 2.502079	 70.410780	-1.743160	-1.305359	 28.580640	 2.605023	-1.042497	 3.363541	 1.977517	-1.523587	 2.256475	 0.228696	-1.586725	-0.215272	-4.998571	-113.447000	 5.127172	 93.000310	 12.912560	 55.755650	 32.830170	 4.917097	-0.254099	-0.072933	 3.575553	-9.003824	-7.479144	-6.580301	 5.266122	 0.000000	 0.000000	 0.000000	 0.000000	 0.000000	 0.000000	 0.000000	 3.829056	-0.642099	-0.249854	 3.205819	 1.254312	 0.345600	 114.205900	-4.429720	-88.481510	-58.101320	 5.619720	 45.074840	-94.642110	-2.245685	-2.376868	-10.364860	-13.124820	-35.815150	-0.359781	 10.582450	 0.744568	 11.977790	 9.317316	-2.096066	-8.359142	 3.150339	 0.104224
-0.000736	 1.269552	-0.007957	 0.094913	 2.774451	 178.796200	-178.260900	 3.816504	-14.363730	 3.129578	-15.457860	 2.890377	-5.179684	 69.627520	 6.682217	 1.331492	 28.938720	-2.729976	 178.136900	 4.727658	 17.900750	-5.106954	-16.365830	-6.457184	 2.502829	 70.388710	-1.747550	-1.305359	 28.580640	 2.604959	-1.007742	 3.327827	 1.899401	-1.517307	 2.106475	 0.196014	-1.590817	-0.040111	-4.881299	-113.447100	 5.127026	 93.000270	 12.965460	 55.773620	 32.786930	 4.889050	-0.252709	-0.073045	 3.407981	-8.951395	-7.740849	-6.580301	 5.266122	 0.000000	 0.000000	 0.000000	 0.000000	 0.000000	 0.000000	 0.000000	 3.829277	-0.642605	-0.249923	 3.206070	 1.279755	 0.370916	 114.205900	-4.429441	-88.481720	-57.759600	 6.115595	 44.866470	-95.049940	-2.244325	-2.392819	-10.549350	-13.165040	-35.672550	-0.359781	 10.582440	 0.744568	 11.977790	 9.317315	-2.096066	-8.359142	 3.150339	 0.104224
-0.000716	 1.269599	-0.007827	 0.131055	 2.682631	 178.788300	-178.218400	 3.942069	-14.365020	 3.139755	-15.505660	 2.892312	-5.171209	 69.640910	 6.666703	 1.331492	 28.938720	-2.729976	 178.173600	 4.816835	 17.901220	-5.097528	-16.337280	-6.455845	 2.501444	 70.361650	-1.750334	-1.305359	 28.580640	 2.604825	-0.967400	 3.282763	 1.785119	-1.513899	 1.928367	 0.146612	-1.595300	 0.165230	-4.708608	-113.447100	 5.126729	 93.000200	 13.020640	 55.794690	 32.742810	 4.855484	-0.250926	-0.073245	 3.188086	-8.899168	-8.129615	-6.580301	 5.266122	 0.000000	 0.000000	 0.000000	 0.000000	 0.000000	 0.000000	 0.000000	 3.829738	-0.643664	-0.250067	 3.207057	 1.311342	 0.408811	 114.205800	-4.428873	-88.482150	-57.315100	 6.719346	 44.586030	-95.530090	-2.242573	-2.411610	-10.846360	-13.194970	-35.435540	-0.359781	 10.582440	 0.744568	 11.977790	 9.317312	-2.096065	-8.359142	 3.150337	 0.104224
-0.000696	 1.269640	-0.007727	 0.158607	 2.610240	 178.780800	-178.185700	 4.038699	-14.366950	 3.146877	-15.539180	 2.893175	-5.163848	 69.649480	 6.653825	 1.331492	 28.938720	-2.729976	 178.201700	 4.886869	 17.901010	-5.089878	-16.314150	-6.455269	 2.500217	 70.340260	-1.752295	-1.305360	 28.580650	 2.604656	-0.936902	 3.245814	 1.678702	-1.514357	 1.790869	 0.099672	-1.598631	 0.321493	-4.545960	-113.447100	 5.126381	 93.000130	 13.057140	 55.811180	 32.716210	 4.828041	-0.249579	-0.073310	 3.000654	-8.866904	-8.499534	-6.580301	 5.266122	 0.000000	 0.000000	 0.000000	 0.000000	 0.000000	 0.000000	 0.000000	 3.830320	-0.644999	-0.250248	 3.208618	 1.336954	 0.444846	 114.205700	-4.428171	-88.482660	-56.931780	 7.197017	 44.336410	-95.895760	-2.241156	-2.425898	-11.154260	-13.196940	-35.192780	-0.359781	 10.582440	 0.744568	 11.977790	 9.317307	-2.096065	-8.359142	 3.150335	 0.104224
-0.000670	 1.269687	-0.007622	 0.187207	 2.532454	 178.771900	-178.151300	 4.139976	-14.370400	 3.153632	-15.570840	 2.893469	-5.157107	 69.656540	 6.641358	 1.331492	 28.938720	-2.729976	 178.231200	 4.961370	 17.899970	-5.081240	-16.287990	-6.455393	 2.496163	 70.317120	-1.751259	-1.305361	 28.580660	 2.604389	-0.905622	 3.205447	 1.547366	-1.518160	 1.644778	 0.040590	-1.602095	 0.482549	-4.344043	-113.447100	 5.125835	 93.000010	 13.084490	 55.828220	 32.697260	 4.799732	-0.248046	-0.073450	 2.786069	-8.841682	-8.959747	-6.580301	 5.266122	 0.000000	 0.000000	 0.000000	 0.000000	 0.000000	 0.000000	 0.000000	 3.831241	-0.647112	-0.250535	 3.211371	 1.364961	 0.489749	 114.205500	-4.427051	-88.483450	-56.482430	 7.703536	 44.034580	-96.265770	-2.239597	-2.440389	-11.576260	-13.169040	-34.872710	-0.359781	 10.582430	 0.744568	 11.977790	 9.317304	-2.096063	-8.359142	 3.150332	 0.104224
-0.000638	 1.269735	-0.007524	 0.213940	 2.458045	 178.761600	-178.118800	 4.234053	-14.375410	 3.159064	-15.596330	 2.892763	-5.151306	 69.660870	 6.630118	 1.331492	 28.938720	-2.729976	 178.259100	 5.032261	 17.897970	-5.072645	-16.261960	-6.456532	 2.490432	 70.294930	-1.748023	-1.305363	 28.580660	 2.604019	-0.877041	 3.163657	 1.403664	-1.524923	 1.511325	-0.024980	-1.605531	 0.627711	-4.120466	-113.447100	 5.125023	 92.999820	 13.100800	 55.844270	 32.690600	 4.770962	-0.246589	-0.073525	 2.566681	-8.826864	-9.473380	-6.580301	 5.266122	 0.000000	 0.000000	 0.000000	 0.000000	 0.000000	 0.000000	 0.000000	 3.832520	-0.650046	-0.250934	 3.215458	 1.392373	 0.539496	 114.205300	-4.425494	-88.484580	-56.001850	 8.178077	 43.703490	-96.592070	-2.238199	-2.453141	-12.097050	-13.102570	-34.499300	-0.359781	 10.582430	 0.744568	 11.977790	 9.317296	-2.096062	-8.359142	 3.150329	 0.104225
-0.000600	 1.269786	-0.007434	 0.239048	 2.385764	 178.749800	-178.087500	 4.322739	-14.382280	 3.163504	-15.617120	 2.891089	-5.147242	 69.663350	 6.620715	 1.331492	 28.938720	-2.729976	 178.285700	 5.100779	 17.894820	-5.064111	-16.236160	-6.458835	 2.482308	 70.273910	-1.741705	-1.305364	 28.580680	 2.603522	-0.850961	 3.120774	 1.248037	-1.534862	 1.387019	-0.096895	-1.608788	 0.757750	-3.875777	-113.447100	 5.123973	 92.999590	 13.101450	 55.858820	 32.698720	 4.743910	-0.245177	-0.073663	 2.343051	-8.821728	-10.038040	-6.580301	 5.266122	 0.000000	 0.000000	 0.000000	 0.000000	 0.000000	 0.000000	 0.000000	 3.834236	-0.653983	-0.251468	 3.221179	 1.419248	 0.593699	 114.205000	-4.423410	-88.486090	-55.483460	 8.613606	 43.338280	-96.864940	-2.236900	-2.463764	-12.736690	-12.990710	-34.071870	-0.359780	 10.582420	 0.744568	 11.977790	 9.317285	-2.096060	-8.359142	 3.150323	 0.104225
-0.000549	 1.269844	-0.007346	 0.265232	 2.309097	 178.734400	-178.054200	 4.413641	-14.392360	 3.167257	-15.634800	 2.887815	-5.145410	 69.664010	 6.613014	 1.331492	 28.938720	-2.729976	 178.314100	 5.172383	 17.889810	-5.054505	-16.207000	-6.463121	 2.469705	 70.251850	-1.730180	-1.305367	 28.580690	 2.602796	-0.825095	 3.071154	 1.063785	-1.548666	 1.263067	-0.183135	-1.612580	 0.881936	-3.582493	-113.447100	 5.122454	 92.999270	 13.083790	 55.873390	 32.724350	 4.714195	-0.243678	-0.073810	 2.094460	-8.826177	-10.717150	-6.580301	 5.266122	 0.000000	 0.000000	 0.000000	 0.000000	 0.000000	 0.000000	 0.000000	 3.836739	-0.659726	-0.252248	 3.229786	 1.448058	 0.658241	 114.204500	-4.420347	-88.488300	-54.859550	 9.037098	 42.891380	-97.089290	-2.235845	-2.472545	-13.608070	-12.806020	-33.536170	-0.359780	 10.582400	 0.744568	 11.977790	 9.317269	-2.096057	-8.359142	 3.150315	 0.104226
-0.000540	 1.269853	-0.007368	 0.273635	 2.307779	 178.726700	-178.044000	 4.414765	-14.399520	 3.168411	-15.640170	 2.885007	-5.154616	 69.667770	 6.620743	 1.331492	 28.938720	-2.729976	 178.323400	 5.165502	 17.885840	-5.049506	-16.191850	-6.466886	 2.458525	 70.246830	-1.717377	-1.305369	 28.580700	 2.602255	-0.817429	 3.091386	 0.878484	-1.546835	 1.179804	-0.272919	-1.623892	 0.970550	-3.294169	-113.447100	 5.121298	 92.999020	 13.144480	 55.850090	 32.680250	 4.714606	-0.243723	-0.073798	 1.827553	-8.790336	-11.391470	-6.580301	 5.266122	 0.000000	 0.000000	 0.000000	 0.000000	 0.000000	 0.000000	 0.000000	 3.838606	-0.664009	-0.252829	 3.236054	 1.472089	 0.723601	 114.204200	-4.418080	-88.489960	-54.719930	 8.819122	 42.783080	-96.917920	-2.236652	-2.465843	-14.009750	-12.542570	-32.787860	-0.359780	 10.582390	 0.744568	 11.977790	 9.317259	-2.096054	-8.359142	 3.150309	 0.104227
